<?xml version="1.0" standalone="no"?>
<!DOCTYPE svg PUBLIC "-//W3C//DTD SVG 20010904//EN"
 "http://www.w3.org/TR/2001/REC-SVG-20010904/DTD/svg10.dtd">
<svg version="1.0" xmlns="http://www.w3.org/2000/svg"
 width="832.000000pt" height="156.000000pt" viewBox="0 0 832.000000 156.000000"
 preserveAspectRatio="xMidYMid meet">

<g transform="translate(0.000000,156.000000) scale(0.100000,-0.100000)"
fill="#000000" stroke="none">
<path d="M5330 1492 c-207 -54 -332 -229 -317 -444 14 -207 160 -341 400 -368
127 -15 187 -51 222 -132 30 -73 13 -141 -47 -194 -109 -96 -304 -48 -337 81
l-11 45 -117 0 -116 0 7 -55 c20 -177 146 -307 333 -346 171 -35 358 29 456
157 110 144 100 388 -22 526 -65 74 -207 138 -308 138 -155 0 -252 98 -223
226 22 96 88 144 198 144 102 0 166 -40 188 -117 l11 -38 116 -3 c132 -3 124
-10 101 88 -19 82 -49 133 -112 192 -61 58 -115 86 -201 104 -85 18 -141 17
-221 -4z"/>
<path d="M7780 1498 c-42 -5 -89 -19 -136 -42 -227 -113 -321 -386 -210 -612
113 -227 386 -321 612 -210 227 113 321 386 209 612 -88 179 -270 275 -475
252z"/>
<path d="M20 790 l0 -700 375 0 375 0 0 115 0 115 -260 0 -260 0 0 585 0 585
-115 0 -115 0 0 -700z"/>
<path d="M1100 1380 l0 -110 80 0 80 0 -2 -482 -3 -483 -82 -3 -83 -3 0 -104
0 -105 280 0 280 0 0 105 0 105 -80 0 -80 0 0 485 0 484 78 3 77 3 0 105 0
105 -272 3 -273 2 0 -110z"/>
<path d="M2060 790 l0 -700 115 0 115 0 2 495 3 495 345 -494 345 -495 118 -1
117 0 0 700 0 700 -115 0 -115 0 -2 -493 -3 -494 -345 493 -345 493 -117 1
-118 0 0 -700z"/>
<path d="M3730 790 l0 -700 465 0 465 0 0 115 0 115 -350 0 -350 0 0 175 0
175 290 0 290 0 0 115 0 115 -290 0 -290 0 0 175 0 175 350 0 350 0 0 120 0
120 -465 0 -465 0 0 -700z"/>
<path d="M6782 1448 c-37 -82 -614 -1323 -623 -1340 -9 -17 -1 -18 108 -18
l118 0 300 642 c165 352 312 667 327 699 l27 59 -119 0 -119 0 -19 -42z"/>
</g>
</svg>
